#!OML:ASF I:\Actors\actors\Patient Classification 1\Patient 1\Session 1\Subject1.ASF
:FULLY-SPECIFIED
:DEGREES
1504
root 0.766506 17.5427 9.5336 12.168 -1.57427 -9.57329
lowerback 0.684651 3.5558 6.623
upperback -8.09899 5.19048 0.393028
thorax -8.40059 2.11072 -3.65811
lowerneck -15.4791 -2.74594 -0.849584
upperneck 28.9305 -5.55244 5.89779
head 12.3365 -1.79429 1.54183
rclavicle 2.64881e-014 2.38542e-015
rhumerus 35.9208 52.3446 -36.2276
rradius 90.3078
rwrist 20.4694
rhand 25.2782 -46.803
rfingers 7.12502
rthumb 49.4164 291.673
lclavicle 2.64881e-014 2.38542e-015
lhumerus -34.2379 -28.5302 78.8861
lradius 108.742
lwrist 2.30168
lhand -28.0277 -10.522
lfingers 7.12502
lthumb -1.41266 19.4531
rfemur -5.99305 26.09 24.4356
rtibia 1.3426
rfoot -13.1301 -25.059
rtoes 1.56992
lfemur 5.79188 -52.595 -12.4512
ltibia -5.09037
lfoot -34.2633 58.3913
ltoes 17.9574
1505
root 0.762981 17.5414 9.53954 12.1524 -1.51107 -9.61836
lowerback 1.00142 3.60133 6.31476
upperback -8.30594 5.28409 0.528676
thorax -8.84242 2.16232 -3.38538
lowerneck -15.5485 -2.85177 -0.882095
upperneck 29.2596 -5.68957 5.79628
head 12.487 -1.86172 1.49151
rclavicle 9.88954e-015 -1.82882e-014
rhumerus 35.7527 53.1137 -36.1934
rradius 89.7851
rwrist 20.0688
rhand 24.552 -46.4978
rfingers 7.12502
rthumb 48.7496 291.647
lclavicle 9.88954e-015 -1.82882e-014
lhumerus -34.6074 -28.5567 79.5747
lradius 108.599
lwrist 2.07927
lhand -28.0847 -10.6075
lfingers 7.12502
lthumb -1.46774 19.3672
rfemur -5.94084 26.0022 24.5133
rtibia 1.30593
rfoot -13.1954 -24.9883
rtoes 1.88175
lfemur 5.87183 -52.7272 -12.4704
ltibia -5.05107
lfoot -34.5004 58.4533
ltoes 18.0024
1506
root 0.758784 17.54 9.54468 12.1504 -1.50753 -9.69513
lowerback 1.0421 3.68966 6.19787
upperback -8.34321 5.40463 0.560159
thorax -8.90776 2.22864 -3.30103
lowerneck -15.6343 -2.98351 -0.966618
upperneck 29.399 -5.8948 5.88104
head 12.5772 -1.94531 1.50755
rclavicle 2.76808e-014 2.38542e-015
rhumerus 34.9351 53.363 -37.1459
rradius 89.4139
rwrist 19.9878
rhand 23.4783 -46.107
rfingers 7.12502
rthumb 47.7605 291.569
lclavicle 2.76808e-014 2.38542e-015
lhumerus -34.5804 -28.6247 79.9212
lradius 108.429
lwrist 1.93136
lhand -28.0644 -10.4369
lfingers 7.12502
lthumb -1.44813 19.538
rfemur -5.92608 25.9195 24.6172
rtibia 1.31055
rfoot -13.2581 -24.861
rtoes 2.17436
lfemur 5.94865 -52.7787 -12.4397
ltibia -5.0502
lfoot -34.4042 58.6004
ltoes 17.6059
1507
root 0.753287 17.5398 9.5503 12.1568 -1.53725 -9.72488
lowerback 0.909099 3.78632 6.10369
upperback -8.29093 5.51403 0.537377
thorax -8.76507 2.29585 -3.26762
lowerneck -15.6534 -3.10724 -1.17966
upperneck 29.3769 -6.09897 6.15881
head 12.6006 -2.02308 1.61832
rclavicle 1.29707e-014 -1.59028e-014
rhumerus 33.5977 53.2214 -38.8297
rradius 89.1769
rwrist 20.3161
rhand 22.4213 -45.7028
rfingers 7.12502
rthumb 46.7836 291.536
lclavicle 1.29707e-014 -1.59028e-014
lhumerus -34.4151 -28.7259 80.0565
lradius 108.343
lwrist 1.90006
lhand -28.0526 -10.213
lfingers 7.12502
lthumb -1.4367 19.7619
rfemur -5.93041 25.8905 24.6715
rtibia 1.35249
rfoot -13.3041 -24.7735
rtoes 2.41803
lfemur 6.08232 -52.9228 -12.4989
ltibia -5.08047
lfoot -34.6403 58.777
ltoes 17.582
1508
root 0.748771 17.5404 9.55492 12.164 -1.48155 -9.69522
lowerback 0.751243 3.82142 5.95588
upperback -8.20624 5.53569 0.534748
thorax -8.58684 2.32642 -3.1741
lowerneck -15.7202 -3.20995 -1.3582
upperneck 29.3365 -6.25848 6.36253
head 12.621 -2.08647 1.70079
rclavicle -1.00883e-014 2.14687e-014
rhumerus 32.0932 52.8753 -40.6784
rradius 89.1347
rwrist 20.6893
rhand 21.4344 -45.3699
rfingers 7.12502
rthumb 45.8689 291.481
lclavicle -1.00883e-014 2.14687e-014
lhumerus -34.2428 -28.7333 80.1506
lradius 108.327
lwrist 1.89383
lhand -28.0574 -10.2327
lfingers 7.12502
lthumb -1.4414 19.7422
rfemur -5.9406 25.843 24.6543
rtibia 1.38561
rfoot -13.3132 -24.7776
rtoes 2.50114
lfemur 6.09065 -53.0303 -12.5143
ltibia -5.09395
lfoot -34.8464 58.8062
ltoes 17.7173
1509
root 0.746409 17.5407 9.55747 12.1776 -1.30576 -9.69421
lowerback 0.647139 3.78595 5.85723
upperback -8.13545 5.47414 0.578744
thorax -8.46478 2.31135 -3.05844
lowerneck -15.8154 -3.28848 -1.53004
upperneck 29.3052 -6.36715 6.50786
head 12.6462 -2.13345 1.76737
rclavicle -5.55106e-014 -5.56597e-015
rhumerus 30.5763 52.4819 -42.481
rradius 89.2391
rwrist 20.8505
rhand 20.3346 -45.056
rfingers 7.12502
rthumb 44.8467 291.384
lclavicle -5.55106e-014 -5.56597e-015
lhumerus -34.1593 -28.586 80.2742
lradius 108.344
lwrist 1.90195
lhand -28.0066 -10.446
lfingers 7.12502
lthumb -1.39232 19.5292
rfemur -5.97126 25.7945 24.663
rtibia 1.41882
rfoot -13.3505 -24.8937
rtoes 2.48782
lfemur 5.80683 -52.8223 -12.2401
ltibia -5.06867
lfoot -34.2273 58.5668
ltoes 17.3646
